<?xml version="1.0" encoding="UTF-8" standalone="no"?>
<!DOCTYPE svg PUBLIC "-//W3C//DTD SVG 1.1//EN" "http://www.w3.org/Graphics/SVG/1.1/DTD/svg11.dtd">
<svg width="100%" height="100%" viewBox="0 0 512 512" version="1.1" xmlns="http://www.w3.org/2000/svg" xmlns:xlink="http://www.w3.org/1999/xlink" xml:space="preserve" xmlns:serif="http://www.serif.com/" style="fill-rule:evenodd;clip-rule:evenodd;stroke-linejoin:round;stroke-miterlimit:2;">
    <g>
        <g transform="matrix(1,0,0,1,0,12.4508)">
            <path d="M188.245,369.815L224.292,286.373L242.316,303.729L260.339,257.669L309.737,370.243L188.245,369.815" style="fill:rgb(78,163,139);"/>
        </g>
        <g transform="matrix(1,0,0,1,0,12.4508)">
            <path d="M0.065,113.909L365.81,114.194L365.81,202.931L437.521,114.194L511.825,113.986L403.192,239.645L511.805,369.575L435.979,369.893L365.81,291.713L365.81,369.815L243.662,116.378L136.845,370.132L-1.018,369.86L0.065,113.909ZM48.542,317.496L89.073,317.496C101.59,317.496 111.41,316.331 118.532,314C125.654,311.669 131.33,308.389 135.56,304.159C141.517,298.202 146.157,290.195 149.481,280.138C152.804,270.081 154.466,257.887 154.466,243.556C154.466,223.701 151.207,208.442 144.689,197.781C138.172,187.119 130.251,179.976 120.928,176.35C114.194,173.76 103.36,172.465 88.425,172.465L48.542,172.465L48.542,317.496Z" style="fill:rgb(230,137,75);"/>
        </g>
    </g>
</svg>
